<?xml version="1.0" standalone="no"?>
<!DOCTYPE svg PUBLIC "-//W3C//DTD SVG 20010904//EN"
 "http://www.w3.org/TR/2001/REC-SVG-20010904/DTD/svg10.dtd">
<svg version="1.0" xmlns="http://www.w3.org/2000/svg"
 width="1280.000000pt" height="1002.000000pt" viewBox="0 0 1280.000000 1002.000000"
 preserveAspectRatio="xMidYMid meet">
<metadata>
Created by potrace 1.15, written by Peter Selinger 2001-2017
</metadata>
<g transform="translate(0.000000,1002.000000) scale(0.100000,-0.100000)"
fill="#ffffff" stroke="none">
<path d="M11026 10000 c-22 -11 -50 -29 -61 -40 -18 -17 -24 -18 -33 -7 -7 8
-29 19 -50 25 -50 15 -97 2 -148 -42 -37 -31 -42 -33 -64 -20 -30 16 -74 18
-100 4 -10 -5 -46 -46 -80 -91 -81 -108 -112 -196 -117 -334 -4 -88 -8 -109
-38 -175 -78 -171 -112 -364 -100 -560 8 -136 17 -164 102 -335 101 -203 187
-318 292 -395 46 -34 61 -52 71 -84 28 -94 79 -165 142 -197 l40 -21 -6 -51
c-12 -90 -15 -92 -97 -50 -134 68 -229 47 -364 -82 l-70 -66 -15 23 c-29 46
-88 98 -111 98 -67 0 -179 -95 -325 -276 -78 -98 -157 -167 -183 -162 -11 2
-17 17 -19 46 -4 51 -70 155 -122 190 -36 24 -88 29 -123 11 -12 -7 -56 -45
-98 -85 -42 -41 -81 -74 -87 -74 -6 0 -37 -22 -68 -50 -38 -33 -66 -50 -84
-50 -15 0 -83 29 -152 65 -103 53 -135 65 -173 65 -76 0 -142 -43 -221 -144
l-30 -38 -60 18 c-33 10 -79 34 -105 56 -60 49 -156 106 -247 148 -52 24 -78
42 -88 63 -27 52 -68 60 -250 53 -89 -4 -191 -13 -227 -21 -183 -38 -296 -155
-327 -337 l-12 -67 -44 -7 c-55 -8 -84 -4 -209 30 -107 29 -228 36 -279 16
-17 -6 -59 -33 -95 -59 -36 -27 -77 -54 -90 -61 -34 -18 -212 -15 -301 5 -177
39 -294 11 -498 -118 -62 -39 -65 -40 -132 -33 -90 8 -251 -9 -304 -33 -22
-10 -63 -37 -91 -60 -56 -47 -108 -65 -235 -81 -47 -6 -106 -18 -132 -26 -59
-19 -106 -70 -114 -124 -4 -23 -12 -40 -20 -40 -42 0 -119 -25 -146 -48 -26
-22 -41 -26 -92 -27 -81 0 -120 -25 -196 -125 l-59 -78 -63 -11 c-91 -16 -153
-51 -240 -135 -42 -41 -85 -77 -97 -81 -11 -3 -41 1 -66 10 -74 25 -136 0
-241 -95 -76 -69 -127 -90 -173 -71 -16 7 -32 19 -35 27 -4 10 -22 14 -58 14
-62 0 -153 -39 -212 -91 -30 -25 -48 -33 -83 -35 -27 -1 -71 -15 -114 -36
l-69 -34 -45 43 c-39 37 -51 43 -87 43 -39 0 -47 -5 -98 -60 l-56 -59 -36 42
c-44 53 -86 67 -202 67 -85 0 -88 1 -147 41 -96 65 -168 85 -208 60 -9 -6 -26
-2 -47 11 -47 27 -134 26 -221 -3 -118 -39 -143 -68 -103 -121 l22 -30 -35
-37 c-35 -36 -57 -71 -57 -89 0 -6 16 -29 35 -51 48 -58 30 -92 -35 -69 -53
18 -111 4 -145 -35 -28 -32 -34 -35 -65 -28 -61 13 -110 -20 -110 -73 0 -7
-21 -24 -47 -38 -42 -21 -82 -63 -118 -121 -11 -19 -335 -117 -385 -117 -48 0
-97 -25 -114 -59 -10 -18 -16 -55 -16 -93 l0 -64 -32 4 c-42 5 -157 -22 -208
-48 -54 -27 -109 -84 -132 -137 -29 -65 -45 -203 -28 -243 13 -30 16 -32 54
-27 23 3 51 9 63 12 18 6 25 0 43 -34 46 -91 46 -87 -23 -120 -115 -55 -148
-119 -99 -189 41 -57 76 -74 165 -81 l81 -6 29 -50 c47 -81 67 -81 103 2 22
48 27 53 57 53 39 0 167 34 210 56 l30 16 -8 -29 c-18 -66 -24 -112 -25 -177
0 -66 -1 -68 -22 -61 -13 4 -40 9 -61 12 -36 5 -37 4 -37 -25 0 -21 18 -54 61
-112 33 -45 59 -85 57 -88 -2 -4 -21 -33 -43 -66 l-39 -58 -61 6 c-33 3 -74 9
-92 12 l-32 6 15 -62 c17 -72 27 -95 61 -131 l25 -27 -21 -83 c-11 -46 -23
-106 -26 -134 -4 -27 -9 -58 -11 -67 -6 -21 -71 -40 -110 -32 -36 7 -80 -9
-93 -34 -9 -16 1 -35 59 -114 l69 -95 -18 -51 c-10 -27 -24 -73 -31 -102 -12
-49 -14 -51 -39 -45 -14 3 -43 17 -63 30 -20 14 -39 21 -41 17 -9 -18 -8 -108
3 -153 9 -35 22 -57 45 -77 l33 -27 -34 -40 -34 -40 -40 45 c-46 51 -45 54
-14 -74 12 -48 12 -71 3 -114 -15 -72 -4 -160 31 -262 32 -92 48 -110 168
-186 115 -74 223 -106 367 -111 153 -6 250 14 441 92 310 126 567 280 860 517
l122 98 103 0 c187 0 384 36 489 90 22 11 99 35 172 54 128 33 258 81 305 111
12 8 40 15 61 15 92 0 198 46 342 150 48 34 87 54 66 33 -4 -4 33 -17 81 -29
48 -12 142 -47 208 -77 150 -69 208 -86 315 -93 109 -8 235 14 398 68 l122 41
60 -17 c66 -19 223 -35 345 -36 l80 -1 -104 -39 c-249 -95 -376 -196 -569
-455 -130 -175 -138 -183 -176 -190 -195 -39 -394 -163 -456 -285 -12 -25 -54
-78 -92 -119 -102 -107 -136 -192 -107 -268 l11 -28 23 27 c57 66 133 85 215
52 22 -9 56 -14 74 -12 l35 4 -35 -46 c-116 -150 -277 -429 -298 -515 -51
-208 2 -272 160 -190 37 19 88 54 113 78 51 47 151 119 222 160 49 28 172 152
215 217 15 22 28 40 29 40 10 0 -89 -401 -123 -495 -31 -88 -36 -111 -36 -195
0 -217 58 -234 201 -58 100 122 120 157 157 272 34 105 38 113 69 124 63 23
83 16 127 -40 60 -76 78 -116 96 -220 8 -51 23 -104 31 -118 26 -42 66 -80 84
-80 27 0 63 35 92 88 24 45 28 65 34 179 6 122 8 129 34 155 47 48 98 31 160
-55 28 -38 28 -41 22 -132 l-6 -94 34 -20 c50 -31 77 -27 118 17 39 42 68 111
102 242 20 78 21 100 14 280 -8 245 -20 363 -46 469 l-21 84 27 68 c29 74 110
202 183 287 54 64 163 150 317 252 190 126 337 235 412 304 127 118 223 265
278 425 21 62 23 78 14 137 -5 37 -8 68 -7 69 2 2 26 14 53 28 28 14 79 44
114 65 57 35 68 38 94 30 16 -6 63 -8 105 -6 82 5 145 27 242 85 30 18 65 33
78 33 53 0 164 34 218 66 l58 35 64 -17 c58 -16 65 -16 97 -1 19 9 46 34 61
56 l26 40 426 142 c235 78 460 155 501 170 l74 28 -6 -79 c-10 -130 -39 -196
-161 -373 -60 -86 -174 -239 -253 -339 -211 -265 -250 -327 -293 -463 -18 -59
-21 -92 -21 -212 1 -147 4 -166 29 -195 22 -26 31 -23 101 28 42 32 70 62 86
94 31 61 44 70 108 79 50 7 57 5 88 -20 l33 -27 -46 -68 c-64 -95 -74 -132
-59 -233 22 -146 55 -210 104 -197 13 3 54 39 91 81 37 41 75 75 84 75 11 0
27 23 45 64 41 92 81 136 121 136 17 0 36 -4 42 -10 5 -5 45 -12 87 -14 83 -4
106 -15 133 -68 19 -37 18 -71 -6 -153 -33 -114 -10 -143 77 -99 44 23 62 45
212 272 173 262 182 281 147 335 -16 24 -16 26 13 46 65 47 89 22 148 -155
l36 -111 -37 -60 c-69 -112 -32 -139 113 -83 88 34 128 68 160 135 25 54 34
137 22 205 -32 175 -34 196 -18 264 14 63 14 83 -14 357 l-30 291 26 102 c62
252 68 501 19 835 l-15 104 24 26 c14 14 32 40 40 57 20 39 79 92 113 100 14
4 51 4 82 1 158 -14 311 61 517 255 63 59 105 89 140 102 129 47 291 148 420
261 34 30 91 66 133 84 92 40 178 91 231 135 54 45 128 132 151 177 15 29 30
40 81 58 109 40 190 140 205 253 5 38 13 53 36 69 45 33 69 91 78 193 5 50 20
138 34 196 31 131 70 341 93 502 21 149 24 549 5 642 l-12 58 37 60 c47 76 54
141 24 212 l-21 48 39 43 c46 50 60 100 41 146 -13 30 -101 99 -127 99 -19 0
-17 4 21 42 70 70 56 134 -44 196 l-59 37 7 50 c23 166 -10 237 -112 237 l-42
0 0 64 c0 50 -5 70 -21 92 -19 25 -25 27 -86 25 l-66 -2 -6 32 c-3 18 -11 53
-17 80 -16 75 -66 96 -140 58 l-36 -18 -12 45 c-28 114 -60 135 -188 127 -74
-5 -91 -4 -115 12 -28 18 -28 20 -32 123 -2 58 -6 119 -10 136 l-7 31 88 27
c128 40 182 67 251 125 77 64 128 133 144 193 11 40 10 50 -7 84 -27 52 -98
98 -199 130 -78 24 -84 28 -101 66 -21 46 -65 78 -107 78 -16 0 -62 -13 -104
-30 -41 -16 -81 -30 -88 -30 -7 0 -16 13 -20 30 -4 16 -19 39 -33 51 -37 29
-108 22 -187 -18 l-60 -30 -37 32 c-65 56 -144 69 -212 35z m-9416 -7753 c0
-2 -10 -12 -22 -23 l-23 -19 19 23 c18 21 26 27 26 19z m77 -3 c-3 -3 -12 -4
-19 -1 -8 3 -5 6 6 6 11 1 17 -2 13 -5z m-1017 -374 c-8 -5 -24 -9 -35 -9 -16
1 -16 2 5 9 35 11 48 11 30 0z"/>
</g>
</svg>
